<svg width="664" height="105" viewBox="0 0 664 105" fill="none" xmlns="http://www.w3.org/2000/svg">
<path d="M72.264 66.136C72.264 68.184 72.136 70.3173 71.88 72.536H22.344C22.6853 76.9733 24.0933 80.3867 26.568 82.776C29.128 85.08 32.2427 86.232 35.912 86.232C41.3733 86.232 45.1707 83.928 47.304 79.32H70.6C69.4053 84.0133 67.2293 88.2373 64.072 91.992C61 95.7467 57.1173 98.6907 52.424 100.824C47.7307 102.957 42.4827 104.024 36.68 104.024C29.6827 104.024 23.4533 102.531 17.992 99.544C12.5307 96.5573 8.264 92.2907 5.192 86.744C2.12 81.1973 0.584 74.712 0.584 67.288C0.584 59.864 2.07733 53.3787 5.064 47.832C8.136 42.2853 12.4027 38.0187 17.864 35.032C23.3253 32.0453 29.5973 30.552 36.68 30.552C43.592 30.552 49.736 32.0027 55.112 34.904C60.488 37.8053 64.6693 41.944 67.656 47.32C70.728 52.696 72.264 58.968 72.264 66.136ZM49.864 60.376C49.864 56.6213 48.584 53.6347 46.024 51.416C43.464 49.1973 40.264 48.088 36.424 48.088C32.7547 48.088 29.64 49.1547 27.08 51.288C24.6053 53.4213 23.0693 56.4507 22.472 60.376H49.864ZM115.939 82.52L131.427 31.576H154.723L129.379 103H102.371L77.027 31.576H100.451L115.939 82.52ZM231.264 66.136C231.264 68.184 231.136 70.3173 230.88 72.536H181.344C181.685 76.9733 183.093 80.3867 185.568 82.776C188.128 85.08 191.243 86.232 194.912 86.232C200.373 86.232 204.171 83.928 206.304 79.32H229.6C228.405 84.0133 226.229 88.2373 223.072 91.992C220 95.7467 216.117 98.6907 211.424 100.824C206.731 102.957 201.483 104.024 195.68 104.024C188.683 104.024 182.453 102.531 176.992 99.544C171.531 96.5573 167.264 92.2907 164.192 86.744C161.12 81.1973 159.584 74.712 159.584 67.288C159.584 59.864 161.077 53.3787 164.064 47.832C167.136 42.2853 171.403 38.0187 176.864 35.032C182.325 32.0453 188.597 30.552 195.68 30.552C202.592 30.552 208.736 32.0027 214.112 34.904C219.488 37.8053 223.669 41.944 226.656 47.32C229.728 52.696 231.264 58.968 231.264 66.136ZM208.864 60.376C208.864 56.6213 207.584 53.6347 205.024 51.416C202.464 49.1973 199.264 48.088 195.424 48.088C191.755 48.088 188.64 49.1547 186.08 51.288C183.605 53.4213 182.069 56.4507 181.472 60.376H208.864ZM286.331 30.808C294.694 30.808 301.35 33.5387 306.299 39C311.334 44.376 313.851 51.8 313.851 61.272V103H292.091V64.216C292.091 59.4373 290.854 55.7253 288.379 53.08C285.904 50.4347 282.576 49.112 278.395 49.112C274.214 49.112 270.886 50.4347 268.411 53.08C265.936 55.7253 264.699 59.4373 264.699 64.216V103H242.811V31.576H264.699V41.048C266.918 37.8907 269.904 35.416 273.659 33.624C277.414 31.7467 281.638 30.808 286.331 30.808ZM368.869 84.44V103H357.733C349.797 103 343.61 101.08 339.173 97.24C334.736 93.3147 332.517 86.9573 332.517 78.168V49.752H323.813V31.576H332.517V14.168H354.405V31.576H368.741V49.752H354.405V78.424C354.405 80.5573 354.917 82.0933 355.941 83.032C356.965 83.9707 358.672 84.44 361.061 84.44H368.869ZM448.389 66.136C448.389 68.184 448.261 70.3173 448.005 72.536H398.469C398.81 76.9733 400.218 80.3867 402.693 82.776C405.253 85.08 408.368 86.232 412.037 86.232C417.498 86.232 421.296 83.928 423.429 79.32H446.725C445.53 84.0133 443.354 88.2373 440.197 91.992C437.125 95.7467 433.242 98.6907 428.549 100.824C423.856 102.957 418.608 104.024 412.805 104.024C405.808 104.024 399.578 102.531 394.117 99.544C388.656 96.5573 384.389 92.2907 381.317 86.744C378.245 81.1973 376.709 74.712 376.709 67.288C376.709 59.864 378.202 53.3787 381.189 47.832C384.261 42.2853 388.528 38.0187 393.989 35.032C399.45 32.0453 405.722 30.552 412.805 30.552C419.717 30.552 425.861 32.0027 431.237 34.904C436.613 37.8053 440.794 41.944 443.781 47.32C446.853 52.696 448.389 58.968 448.389 66.136ZM425.989 60.376C425.989 56.6213 424.709 53.6347 422.149 51.416C419.589 49.1973 416.389 48.088 412.549 48.088C408.88 48.088 405.765 49.1547 403.205 51.288C400.73 53.4213 399.194 56.4507 398.597 60.376H425.989ZM481.824 43.48C484.384 39.5547 487.584 36.4827 491.424 34.264C495.264 31.96 499.531 30.808 504.224 30.808V53.976H498.208C492.747 53.976 488.651 55.1707 485.92 57.56C483.189 59.864 481.824 63.96 481.824 69.848V103H459.936V31.576H481.824V43.48ZM525.694 24.152C521.854 24.152 518.697 23.0427 516.222 20.824C513.833 18.52 512.638 15.704 512.638 12.376C512.638 8.96266 513.833 6.14666 516.222 3.92799C518.697 1.62399 521.854 0.471992 525.694 0.471992C529.449 0.471992 532.521 1.62399 534.91 3.92799C537.385 6.14666 538.622 8.96266 538.622 12.376C538.622 15.704 537.385 18.52 534.91 20.824C532.521 23.0427 529.449 24.152 525.694 24.152ZM536.574 31.576V103H514.686V31.576H536.574ZM581.492 104.024C575.263 104.024 569.716 102.957 564.852 100.824C559.988 98.6907 556.148 95.7893 553.332 92.12C550.516 88.3653 548.937 84.184 548.596 79.576H570.228C570.484 82.0507 571.636 84.056 573.684 85.592C575.732 87.128 578.249 87.896 581.236 87.896C583.967 87.896 586.057 87.384 587.508 86.36C589.044 85.2507 589.812 83.8427 589.812 82.136C589.812 80.088 588.745 78.5947 586.612 77.656C584.479 76.632 581.023 75.5227 576.244 74.328C571.124 73.1333 566.857 71.896 563.444 70.616C560.031 69.2507 557.087 67.16 554.612 64.344C552.137 61.4427 550.9 57.56 550.9 52.696C550.9 48.6 552.009 44.888 554.228 41.56C556.532 38.1467 559.86 35.4587 564.212 33.496C568.649 31.5333 573.897 30.552 579.956 30.552C588.916 30.552 595.956 32.7707 601.076 37.208C606.281 41.6453 609.268 47.5333 610.036 54.872H589.812C589.471 52.3973 588.361 50.4347 586.484 48.984C584.692 47.5333 582.303 46.808 579.316 46.808C576.756 46.808 574.793 47.32 573.428 48.344C572.063 49.2827 571.38 50.6053 571.38 52.312C571.38 54.36 572.447 55.896 574.58 56.92C576.799 57.944 580.212 58.968 584.82 59.992C590.111 61.3573 594.42 62.7227 597.748 64.088C601.076 65.368 603.977 67.5013 606.452 70.488C609.012 73.3893 610.335 77.3147 610.42 82.264C610.42 86.4453 609.225 90.2 606.836 93.528C604.532 96.7707 601.161 99.3307 596.724 101.208C592.372 103.085 587.295 104.024 581.492 104.024ZM663.619 84.44V103H652.483C644.547 103 638.36 101.08 633.923 97.24C629.486 93.3147 627.267 86.9573 627.267 78.168V49.752H618.563V31.576H627.267V14.168H649.155V31.576H663.491V49.752H649.155V78.424C649.155 80.5573 649.667 82.0933 650.691 83.032C651.715 83.9707 653.422 84.44 655.811 84.44H663.619Z" fill="#4E4E4E"/>
</svg>
